{"title":"Godard - Je vous salue, Marie AKA Hail, Mary (1985)","uid":9224244,"size":1319128836,"categoryP":"video","categoryS":"movies","magnet":"?xt=urn:btih:c8c683a402e3ea3d5bed67c872d451c04cea20f9&amp;dn=Godard+-+Je+vous+salue%2C+Marie+AKA+Hail%2C+Mary+%281985%29&amp;tr=udp%3A%2F%2Ftracker.openbittorrent.com%3A80&amp;tr=udp%3A%2F%2Fopen.demonii.com%3A1337&amp;tr=udp%3A%2F%2Ftracker.coppersurfer.tk%3A6969&amp;tr=udp%3A%2F%2Fexodus.desync.com%3A6969","seeders":24,"leechers":1,"uploader":"moonflux","files":1,"time":1384982923,"description":"Unique ID : 238921358920941143785828696396565997406 (0xB3BE947799A1E0E7991FAB3119FA675E)\nComplete name : Hail Mary NTSC DVD DD2.0 x264 EA.mkv\nFormat : Matroska\nFormat version : Version 2\nFile size : 1.23 GiB\nDuration : 1h 15mn\nOverall bit rate : 2 315 Kbps\nMovie name : Jean-Luc Godard - 'Je vous salue, Marie' (1985)\nEncoded date : UTC 2012-08-27 18:00:43\nWriting application : mkvmerge v5.7.0 ('The Whirlwind') built on Jul 8 2012 20:08:51\nWriting library : libebml v1.2.3 + libmatroska v1.3.0\n\nVideo\nID : 1\nFormat : AVC\nFormat/Info : Advanced Video Codec\nFormat profile : &lt;a class=&quot;__cf_email__&quot; href=&quot;/cdn-cgi/l/email-protection&quot; data-cfemail=&quot;1058797778505c233e21&quot;&gt;[email&amp;#160;protected]&lt;/a&gt;&lt;script cf-hash='f9e31' type=&quot;text/javascript&quot;&gt;\n/* &lt;![CDATA[ */!function(){try{var t=&quot;currentScript&quot;in document?document.currentScript:function(){for(var t=document.getElementsByTagName(&quot;script&quot;),e=t.length;e--;)if(t[e].getAttribute(&quot;cf-hash&quot;))return t[e]}();if(t&amp;&amp;t.previousSibling){var e,r,n,i,c=t.previousSibling,a=c.getAttribute(&quot;data-cfemail&quot;);if(a){for(e=&quot;&quot;,r=parseInt(a.substr(0,2),16),n=2;a.length-n;n+=2)i=parseInt(a.substr(n,2),16)^r,e+=String.fromCharCode(i);e=document.createTextNode(e),c.parentNode.replaceChild(e,c)}}}catch(u){}}();/* ]]&gt; */&lt;/script&gt;\nFormat settings, CABAC : Yes\nFormat settings, ReFrames : 13 frames\nCodec ID : V_MPEG4/ISO/AVC\nDuration : 1h 15mn\nBit rate : 2 121 Kbps\nWidth : 716 pixels\nHeight : 480 pixels\nDisplay aspect ratio : 4:3\nFrame rate : 23.976 fps\nColor space : YUV\nChroma subsampling : 4:2:0\nBit depth : 8 bits\nScan type : Progressive\nBits/(Pixel*Frame) : 0.257\nStream size : 1.10 GiB (90%)\nWriting library : x264 core 125 r2200 999b753\nEncoding settings : cabac=1 // deblock=1:-3:-3 / analyse=0x3:0x113 / me=umh / subme=11 / psy=1 / psy_rd=1.10:0.00 // me_range=32 / chroma_me=1 / trellis=2 / 8x8dct=1 / cqm=0 / deadzone=21,11 / fast_pskip=0 / chroma_qp_offset=-2 / threads=3 / lookahead_threads=1 / sliced_threads=0 / nr=0 / decimate=0 / interlaced=0 / bluray_compat=0 / constrained_intra=0 / bframes=10 / b_pyramid=2 / b_adapt=2 / b_bias=0 / direct=3 / weightb=1 / open_gop=0 / weightp=2 / keyint=230 / keyint_min=23 / scenecut=40 / intra_refresh=0 / rc=2pass / mbtree=0 / bitrate=2121 / ratetol=1.0 / qcomp=0.75 / qpmin=8 / qpmax=69 / qpstep=4 / cplxblur=20.0 / qblur=0.5 / ip_ratio=1.40 / pb_ratio=1.20 / aq=1:0.85\nLanguage : French\nColor primaries : BT.601-6 525, BT.1358 525, BT.1700 NTSC, SMPTE 170M\nTransfer characteristics : BT.601-6 525, BT.601-6 625, BT.1358 525, BT.1358 625, BT.1700 NTSC, SMPTE 170M\nMatrix coefficients : BT.601-6 525, BT.1358 525, BT.1700 NTSC, SMPTE 170M\n\nAudio\nID : 2\nFormat : AC-3\nFormat/Info : Audio Coding 3\nMode extension : CM (complete main)\nCodec ID : A_AC3\nDuration : 1h 15mn\nBit rate mode : Constant\nBit rate : 192 Kbps\nChannel(s) : 2 channels\nChannel positions : Front: L R\nSampling rate : 48.0 KHz\nBit depth : 16 bits\nCompression mode : Lossy\nDelay relative to video : 1s 200ms\nStream size : 104 MiB (8%)\nLanguage : French\n\nText\nID : 3\nFormat : UTF-8\nCodec ID : S_TEXT/UTF8\nCodec ID/Info : UTF-8 Plain Text\nLanguage : English","torrent":{"xt":"urn:btih:c8c683a402e3ea3d5bed67c872d451c04cea20f9","amp;dn":"Godard+-+Je+vous+salue%2C+Marie+AKA+Hail%2C+Mary+%281985%29","amp;tr":["udp%3A%2F%2Ftracker.openbittorrent.com%3A80","udp%3A%2F%2Fopen.demonii.com%3A1337","udp%3A%2F%2Ftracker.coppersurfer.tk%3A6969","udp%3A%2F%2Fexodus.desync.com%3A6969"],"infoHash":"c8c683a402e3ea3d5bed67c872d451c04cea20f9","infoHashBuffer":{"type":"Buffer","data":[200,198,131,164,2,227,234,61,91,237,103,200,114,212,81,192,76,234,32,249]},"announce":[],"urlList":[]}}